<?xml version="1.0" encoding="UTF-8"?>
<svg version="1.1" xmlns="http://www.w3.org/2000/svg" width="359" height="323">
<path d="M0 0 C0.66845947 0.19746826 1.33691895 0.39493652 2.02563477 0.59838867 C3.11823608 0.88782349 3.11823608 0.88782349 4.23291016 1.18310547 C6.7154298 1.85251711 9.18260767 2.56494419 11.65063477 3.28588867 C12.54669434 3.54370117 13.44275391 3.80151367 14.3659668 4.06713867 C18.31404389 5.20473179 22.2587442 6.35289167 26.19848633 7.51904297 C33.19810436 9.59025915 40.21980252 11.54096442 47.27563477 13.41088867 C59.77364911 16.73056659 72.21095871 20.25510919 84.65063477 23.78588867 C97.7988435 27.51649646 110.94744702 31.22720076 124.15600586 34.73925781 C133.88222216 37.32994607 143.57892675 40.02478658 153.27563477 42.72338867 C154.09477356 42.95134125 154.91391235 43.17929382 155.75787354 43.41415405 C160.38918869 44.70331856 165.0200848 45.99397852 169.65063477 47.28588867 C169.10556149 52.45561213 168.2641039 57.10864439 166.68188477 62.08276367 C166.48599258 62.70497803 166.2901004 63.32719238 166.08827209 63.96826172 C165.44897729 65.99295888 164.79989168 68.01436642 164.15063477 70.03588867 C163.69554449 71.47092565 163.24104543 72.90615023 162.78710938 74.34155273 C159.60560901 84.38157993 156.3602456 94.40127792 153.11743164 104.42163086 C149.77831226 114.78572131 146.60628617 125.19815402 143.44290161 135.61682129 C140.42996429 145.53501976 137.35255312 155.42663041 134.15063477 165.28588867 C130.91102705 175.26212535 127.79533125 185.27105814 124.74273682 195.30569458 C124.03354274 197.63491633 123.32175598 199.96332982 122.60913086 202.29150391 C120.56561968 208.97231012 118.53604693 215.65522828 116.57250977 222.36010742 C115.9738143 224.35628003 115.37487856 226.3523806 114.77563477 228.34838867 C114.52604004 229.23381348 114.27644531 230.11923828 114.01928711 231.03149414 C113.77645996 231.8282959 113.53363281 232.62509766 113.28344727 233.44604492 C113.08638184 234.1228833 112.88931641 234.79972168 112.6862793 235.49707031 C110.33360193 239.56073535 105.19901492 240.99283515 101.02954102 242.66870117 C99.93899414 243.10980225 98.84844727 243.55090332 97.72485352 244.00537109 C96.56598633 244.46919189 95.40711914 244.9330127 94.21313477 245.41088867 C91.7872041 246.38838252 89.3614252 247.36625309 86.93579102 248.34448242 C85.71907715 248.83416504 84.50236328 249.32384766 83.2487793 249.82836914 C79.85289721 251.20395715 76.46675867 252.60049123 73.08422852 254.00854492 C72.07996826 254.42539551 71.07570801 254.84224609 70.04101562 255.27172852 C68.14831399 256.05860895 66.25713413 256.84916216 64.36767578 257.64379883 C63.52261475 257.99361816 62.67755371 258.3434375 61.80688477 258.70385742 C61.07276367 259.010896 60.33864258 259.31793457 59.58227539 259.63427734 C57.65063477 260.28588867 57.65063477 260.28588867 54.65063477 260.28588867 C55.88853106 256.5721998 57.50288353 255.51234686 60.65063477 253.28588867 C61.31063477 253.28588867 61.97063477 253.28588867 62.65063477 253.28588867 C62.65063477 252.62588867 62.65063477 251.96588867 62.65063477 251.28588867 C64.3639623 249.70055165 66.14752524 248.19047653 67.96313477 246.72338867 C68.94926758 245.91772461 69.93540039 245.11206055 70.95141602 244.28198242 C73.65063477 242.28588867 73.65063477 242.28588867 76.65063477 241.28588867 C76.65063477 240.62588867 76.65063477 239.96588867 76.65063477 239.28588867 C79.43880418 236.94129166 82.33735206 234.76990769 85.24438477 232.57495117 C86.03844727 231.81956055 86.83250977 231.06416992 87.65063477 230.28588867 C88.05911057 226.47274122 88.05911057 226.47274122 86.40063477 224.67358398 C85.82313477 224.15892578 85.24563477 223.64426758 84.65063477 223.11401367 C84.01407959 222.53546631 83.37752441 221.95691895 82.72167969 221.36083984 C82.03823486 220.75860596 81.35479004 220.15637207 80.65063477 219.53588867 C79.27070439 218.28832261 77.89179024 217.03963153 76.51391602 215.78979492 C75.8469873 215.18925293 75.18005859 214.58871094 74.49291992 213.9699707 C71.57367462 211.30141066 68.81541186 208.48518327 66.06860352 205.64135742 C64.67366168 204.17457957 64.67366168 204.17457957 62.65063477 203.28588867 C62.65063477 202.62588867 62.65063477 201.96588867 62.65063477 201.28588867 C61.99063477 201.28588867 61.33063477 201.28588867 60.65063477 201.28588867 C60.65063477 200.62588867 60.65063477 199.96588867 60.65063477 199.28588867 C60.09891602 199.06288086 59.54719727 198.83987305 58.97875977 198.61010742 C55.92006717 196.87034771 53.84325356 194.62824386 51.40063477 192.09838867 C46.16325434 186.74237631 40.90559423 181.45586165 34.65063477 177.28588867 C32.58827153 177.64744252 32.58827153 177.64744252 30.65063477 179.28588867 C29.90867315 182.27143752 29.43758105 184.98365878 29.08813477 188.02026367 C28.97083008 188.90977722 28.85352539 189.79929077 28.73266602 190.71575928 C28.48413864 192.60999564 28.24330849 194.50525514 28.00952148 196.40136719 C27.66243117 199.19107606 27.2891124 201.97573113 26.90454102 204.76049805 C26.26539755 209.39190832 25.64433749 214.02545933 25.03112793 218.66036987 C24.64150517 221.6048842 24.24921983 224.54903606 23.85668945 227.49316406 C22.75643449 235.76739257 21.66577036 244.04178962 20.66625977 252.32885742 C20.53219727 253.44035156 20.39813477 254.5518457 20.26000977 255.69702148 C20.02994321 257.63445695 19.80545529 259.57256807 19.58813477 261.51147461 C18.2865713 272.56191968 18.2865713 272.56191968 14.90844727 276.12182617 C14.20461914 276.6297168 13.50079102 277.13760742 12.77563477 277.66088867 C11.96739258 278.24999023 11.15915039 278.8390918 10.32641602 279.44604492 C6.54258064 282.04777699 2.72683297 284.5966962 -1.11108398 287.11791992 C-4.57717504 289.43840308 -7.96573943 291.84781768 -11.34936523 294.28588867 C-13.1077825 295.54158921 -14.86721002 296.79586459 -16.62670898 298.05004883 C-17.7689007 298.86946131 -18.90699705 299.69461476 -20.04077148 300.52563477 C-21.63227227 301.69057196 -23.24054937 302.83248336 -24.84936523 303.97338867 C-26.22608398 304.96918945 -26.22608398 304.96918945 -27.63061523 305.98510742 C-31.09934938 307.64471729 -32.63831114 307.12684808 -36.34936523 306.28588867 C-38.22897302 305.60501885 -40.08641133 304.8605049 -41.91967773 304.06323242 C-42.97147217 303.61093262 -44.0232666 303.15863281 -45.10693359 302.69262695 C-46.77381226 301.965354 -46.77381226 301.965354 -48.47436523 301.22338867 C-50.81089628 300.21783445 -53.14814434 299.21394476 -55.48608398 298.21166992 C-56.64414551 297.71489746 -57.80220703 297.218125 -58.99536133 296.70629883 C-64.48922499 294.37966476 -70.0322208 292.18080029 -75.59008789 290.01220703 C-79.56216299 288.44997376 -83.46499743 286.79561461 -87.34155273 285.00854492 C-94.98591804 281.49826194 -102.7669573 278.31793297 -110.53686523 275.09838867 C-112.13231824 274.43572838 -113.72769519 273.77288495 -115.32299805 273.10986328 C-118.50055396 271.78945957 -121.67846665 270.46992072 -124.85668945 269.15112305 C-131.10707549 266.55699389 -137.35323741 263.9527522 -143.59936523 261.34838867 C-145.52121743 260.54755269 -147.44308973 259.74676497 -149.36499023 258.94604492 C-150.69311523 258.39265951 -152.02124023 257.83927409 -153.34936523 257.28588867 C-153.34936523 256.62588867 -153.34936523 255.96588867 -153.34936523 255.28588867 C-144.48921035 253.81751595 -135.62291392 252.71699637 -126.68720436 251.83918762 C-124.49452978 251.62355455 -122.30236877 251.40322106 -120.11027527 251.1817627 C-113.88827369 250.55405345 -107.6654157 249.93501753 -101.44238281 249.31762695 C-97.6079379 248.93688904 -93.77400095 248.55132513 -89.94031334 248.16304016 C-87.79941735 247.9477226 -85.65802104 247.73800938 -83.51655579 247.52844238 C-76.36923674 246.81305113 -69.3552086 245.8998995 -62.34936523 244.28588867 C-64.51279708 242.09511007 -66.67998487 239.90826461 -68.84936523 237.72338867 C-69.45006836 237.11430664 -70.05077148 236.50522461 -70.66967773 235.87768555 C-73.69335697 232.83792292 -76.74834756 229.9055438 -80.01342773 227.12573242 C-86.07369822 221.89621053 -91.60203764 216.10103297 -97.22436523 210.41088867 C-99.46889144 208.13979254 -101.71670775 205.87202692 -103.96655273 203.60620117 C-104.47797821 203.08647736 -104.98940369 202.56675354 -105.5163269 202.03128052 C-108.17236645 199.31573758 -108.17236645 199.31573758 -111.34936523 197.28588867 C-111.34936523 196.62588867 -111.34936523 195.96588867 -111.34936523 195.28588867 C-112.00936523 195.28588867 -112.66936523 195.28588867 -113.34936523 195.28588867 C-113.34936523 194.62588867 -113.34936523 193.96588867 -113.34936523 193.28588867 C-114.00936523 193.28588867 -114.66936523 193.28588867 -115.34936523 193.28588867 C-115.34936523 192.62588867 -115.34936523 191.96588867 -115.34936523 191.28588867 C-116.00936523 191.28588867 -116.66936523 191.28588867 -117.34936523 191.28588867 C-117.34936523 190.62588867 -117.34936523 189.96588867 -117.34936523 189.28588867 C-118.00936523 189.28588867 -118.66936523 189.28588867 -119.34936523 189.28588867 C-119.34936523 188.62588867 -119.34936523 187.96588867 -119.34936523 187.28588867 C-120.16135376 186.96394531 -120.16135376 186.96394531 -120.98974609 186.63549805 C-124.18628181 184.80720529 -126.55480734 182.30697696 -129.10327148 179.69213867 C-129.6453978 179.14481079 -130.18752411 178.59748291 -130.74607849 178.03356934 C-132.4728418 176.28903928 -134.19275668 174.53795983 -135.91186523 172.78588867 C-137.63539796 171.03470054 -139.36038206 169.28500668 -141.08836365 167.53820801 C-142.1618496 166.45250621 -143.232651 165.36414188 -144.3004303 164.27282715 C-146.5602997 161.98267548 -148.66014436 160.07870259 -151.34936523 158.28588867 C-151.34936523 157.62588867 -151.34936523 156.96588867 -151.34936523 156.28588867 C-152.00936523 156.28588867 -152.66936523 156.28588867 -153.34936523 156.28588867 C-153.33708389 156.89727692 -153.32480255 157.50866516 -153.31214905 158.13858032 C-153.24429007 164.12154615 -153.62822718 169.88185651 -154.40795898 175.80932617 C-154.51656754 176.67675446 -154.62517609 177.54418274 -154.73707581 178.43789673 C-155.08121804 181.17966331 -155.4335137 183.92029514 -155.78686523 186.66088867 C-156.24728104 190.27244535 -156.70403262 193.88444829 -157.15795898 197.49682617 C-157.26610931 198.35499939 -157.37425964 199.21317261 -157.48568726 200.09735107 C-158.27849171 206.48145208 -158.91463943 212.86646518 -159.34936523 219.28588867 C-160.66936523 219.28588867 -161.98936523 219.28588867 -163.34936523 219.28588867 C-163.52943115 217.67145874 -163.52943115 217.67145874 -163.71313477 216.02441406 C-166.4325948 191.68627001 -169.27698506 167.36671631 -172.29321289 143.06347656 C-172.9866655 137.47191624 -173.67161107 131.87937272 -174.34936523 126.28588867 C-174.45879456 125.38858032 -174.56822388 124.49127197 -174.68096924 123.56677246 C-174.98940274 121.01810398 -175.28992538 118.46864047 -175.58764648 115.91870117 C-175.68063522 115.15637177 -175.77362396 114.39404236 -175.86943054 113.60861206 C-176.07163075 111.83868559 -176.21687237 110.06239374 -176.34936523 108.28588867 C-175.34936523 107.28588867 -175.34936523 107.28588867 -173.01660156 107.15307617 C-163.65951086 107.17630016 -154.36965479 107.67765001 -145.03686523 108.28588867 C-143.50628973 108.38261468 -141.97569082 108.47897101 -140.44506836 108.57495117 C-136.74622193 108.80768367 -133.04771429 109.04536645 -129.34936523 109.28588867 C-129.37554932 108.30716797 -129.4017334 107.32844727 -129.42871094 106.32006836 C-129.51933768 102.68244362 -129.57665799 99.04491821 -129.62402344 95.40649414 C-129.64913971 93.83308116 -129.68323996 92.25978455 -129.7265625 90.68676758 C-129.78734922 88.42264095 -129.81560106 86.16005846 -129.83764648 83.89526367 C-129.86345291 83.1940741 -129.88925934 82.49288452 -129.91584778 81.77044678 C-129.91793893 78.11377983 -129.67461774 76.61696483 -127.07226562 73.96801758 C-126.1737085 73.41291504 -125.27515137 72.8578125 -124.34936523 72.28588867 C-123.67663574 71.84583496 -123.00390625 71.40578125 -122.31079102 70.95239258 C-121.64547363 70.55971191 -120.98015625 70.16703125 -120.29467773 69.76245117 C-119.52671875 69.30596191 -118.75875977 68.84947266 -117.9675293 68.37915039 C-117.14478516 67.89462402 -116.32204102 67.41009766 -115.47436523 66.91088867 C-113.67968772 65.84386405 -111.88543386 64.77612663 -110.09155273 63.70776367 C-109.15408203 63.15024414 -108.21661133 62.59272461 -107.25073242 62.01831055 C-102.35073858 59.092498 -97.47402179 56.12866928 -92.59936523 53.16088867 C-91.62459229 52.56759766 -90.64981934 51.97430664 -89.64550781 51.36303711 C-83.49068278 47.60980373 -77.36838143 43.80873312 -71.26757812 39.96850586 C-66.06831325 36.70742062 -60.8083029 33.55365133 -55.53686523 30.41088867 C-48.00595644 25.91994661 -40.56858797 21.30086621 -33.17163086 16.59301758 C-27.58315059 13.04322807 -21.94371196 9.59257093 -16.24267578 6.2265625 C-13.47409415 4.5871185 -10.92465647 2.95094662 -8.39233398 0.95385742 C-5.09357017 -0.85432249 -3.60483078 -0.90831483 0 0 Z " fill="#00B7FD" transform="translate(183.349365234375,8.714111328125)"/>
<path d="M0 0 C-8.86518029 29.86455801 -8.86518029 29.86455801 -12.7734375 41.296875 C-14.35375006 46.06800972 -15.80079294 50.87519184 -17.25 55.6875 C-19.8214928 64.21973282 -22.50024625 72.71111152 -25.25 81.1875 C-28.78319074 92.09115829 -32.17055341 103.03281073 -35.5 114 C-39.15372669 126.03424941 -42.88029028 138.03710531 -46.78808594 149.99194336 C-48.67097309 155.77176175 -50.47325244 161.562003 -52.16015625 167.40234375 C-52.51182861 168.60358887 -52.86350098 169.80483398 -53.22583008 171.04248047 C-53.89136498 173.32988982 -54.54182403 175.62175881 -55.17456055 177.91845703 C-55.47273682 178.93665527 -55.77091309 179.95485352 -56.078125 181.00390625 C-56.32981445 181.89924072 -56.58150391 182.7945752 -56.84082031 183.71704102 C-59.13728002 188.23982845 -64.12645289 189.57624983 -68.62109375 191.3828125 C-70.25691406 192.04446411 -70.25691406 192.04446411 -71.92578125 192.71948242 C-73.08464844 193.18330322 -74.24351562 193.64712402 -75.4375 194.125 C-77.86343067 195.10249384 -80.28920957 196.08036442 -82.71484375 197.05859375 C-84.53991455 197.79311768 -84.53991455 197.79311768 -86.40185547 198.54248047 C-89.79773756 199.91806848 -93.1838761 201.31460256 -96.56640625 202.72265625 C-97.5706665 203.13950684 -98.57492676 203.55635742 -99.60961914 203.98583984 C-101.50232077 204.77272028 -103.39350063 205.56327349 -105.28295898 206.35791016 C-106.55055054 206.88263916 -106.55055054 206.88263916 -107.84375 207.41796875 C-108.57787109 207.72500732 -109.31199219 208.0320459 -110.06835938 208.34838867 C-112 209 -112 209 -115 209 C-113.76210371 205.28631113 -112.14775123 204.22645819 -109 202 C-108.34 202 -107.68 202 -107 202 C-107 201.34 -107 200.68 -107 200 C-105.28667246 198.41466298 -103.50310953 196.90458785 -101.6875 195.4375 C-100.20830078 194.22900391 -100.20830078 194.22900391 -98.69921875 192.99609375 C-96 191 -96 191 -93 190 C-93 189.34 -93 188.68 -93 188 C-90.21183059 185.65540299 -87.31328271 183.48401901 -84.40625 181.2890625 C-83.6121875 180.53367188 -82.818125 179.77828125 -82 179 C-81.59152419 175.18685255 -81.59152419 175.18685255 -83.25 173.38769531 C-83.8275 172.87303711 -84.405 172.35837891 -85 171.828125 C-85.63655518 171.24957764 -86.27311035 170.67103027 -86.92895508 170.07495117 C-87.6123999 169.47271729 -88.29584473 168.8704834 -89 168.25 C-90.37993038 167.00243393 -91.75884452 165.75374286 -93.13671875 164.50390625 C-93.80364746 163.90336426 -94.47057617 163.30282227 -95.15771484 162.68408203 C-98.07696015 160.01552198 -100.83522291 157.1992946 -103.58203125 154.35546875 C-104.97697309 152.88869089 -104.97697309 152.88869089 -107 152 C-107 151.34 -107 150.68 -107 150 C-107.66 150 -108.32 150 -109 150 C-109 149.34 -109 148.68 -109 148 C-109.55171875 147.77699219 -110.1034375 147.55398437 -110.671875 147.32421875 C-113.7305676 145.58445903 -115.8073812 143.34235518 -118.25 140.8125 C-123.48738042 135.45648764 -128.74504053 130.16997298 -135 126 C-137.06236324 126.36155385 -137.06236324 126.36155385 -139 128 C-139.74196161 130.98554885 -140.21305371 133.69777011 -140.5625 136.734375 C-140.67980469 137.62388855 -140.79710937 138.5134021 -140.91796875 139.42987061 C-141.16649613 141.32410697 -141.40732627 143.21936647 -141.64111328 145.11547852 C-141.98820359 147.90518739 -142.36152237 150.68984246 -142.74609375 153.47460938 C-143.38523721 158.10601964 -144.00629728 162.73957066 -144.61950684 167.3744812 C-145.0091296 170.31899553 -145.40141494 173.26314738 -145.79394531 176.20727539 C-146.89420028 184.4815039 -147.98486441 192.75590095 -148.984375 201.04296875 C-149.1184375 202.15446289 -149.2525 203.26595703 -149.390625 204.41113281 C-149.62069155 206.34856828 -149.84517948 208.28667939 -150.0625 210.22558594 C-151.36406346 221.276031 -151.36406346 221.276031 -154.7421875 224.8359375 C-155.44601563 225.34382812 -156.14984375 225.85171875 -156.875 226.375 C-157.68324219 226.96410156 -158.49148437 227.55320312 -159.32421875 228.16015625 C-163.10805413 230.76188831 -166.92380179 233.31080753 -170.76171875 235.83203125 C-174.22773676 238.1524655 -177.61742885 240.56054738 -181 243 C-199.06015038 256 -199.06015038 256 -201 256 C-200.41323766 245.50602136 -199.18025964 235.20773703 -197.6875 224.8125 C-197.463445 223.2262037 -197.2397357 221.63985853 -197.01635742 220.0534668 C-195.5177133 209.44943347 -193.97108367 198.85205729 -192.34448242 188.2668457 C-191.47714278 182.54936913 -190.7308533 176.82728136 -190.07421875 171.08203125 C-188.89871215 160.82087612 -187.44704438 150.60078031 -186 140.375 C-185.60670386 137.58502518 -185.21395384 134.79498096 -184.82327271 132.00463867 C-184.56824634 130.19909802 -184.30845957 128.39422268 -184.04367065 126.59008789 C-183.45988072 122.5699759 -182.93765193 118.58054126 -182.65283203 114.52734375 C-181.94106786 105.22751944 -181.94106786 105.22751944 -179.48730469 102.02685547 C-177.36435648 100.43544887 -175.28598695 99.35650657 -172.875 98.25 C-171.04249329 97.28069683 -169.21189441 96.30778164 -167.3828125 95.33203125 C-166.36735352 94.8107666 -165.35189453 94.28950195 -164.30566406 93.75244141 C-158.67142946 90.76554805 -153.23956767 87.44163396 -147.77700806 84.15432739 C-144.34027109 82.09122968 -140.89019386 80.05067797 -137.44140625 78.0078125 C-136.03265046 77.17230906 -134.62395917 76.33669688 -133.21533203 75.50097656 C-132.51788879 75.08722778 -131.82044556 74.673479 -131.10186768 74.24719238 C-126.98205212 71.80260339 -122.86334739 69.35614411 -118.74455261 66.90983582 C-112.75571115 63.3528573 -106.7661685 59.79706111 -100.77636719 56.24169922 C-98.33152804 54.79050083 -95.88686542 53.33900591 -93.44238281 51.88720703 C-80.21297074 44.03118567 -66.96386727 36.21032605 -53.68530273 28.43777466 C-44.54617641 23.08764719 -35.42217889 17.71261988 -26.3125 12.3125 C-25.22066406 11.66539063 -24.12882813 11.01828125 -23.00390625 10.3515625 C-21.44929688 9.42923828 -21.44929688 9.42923828 -19.86328125 8.48828125 C-18.87666504 7.90643066 -17.89004883 7.32458008 -16.87353516 6.72509766 C-14.94997682 5.57030894 -13.04314565 4.38721268 -11.15380859 3.17724609 C-10.27160645 2.61730957 -9.3894043 2.05737305 -8.48046875 1.48046875 C-7.70985107 0.97797607 -6.9392334 0.4754834 -6.14526367 -0.04223633 C-3.610388 -1.17394422 -2.54921583 -0.97083692 0 0 Z " fill="#090E2B" transform="translate(353,60)"/>
<path d="M0 0 C1.51400391 0.01740234 1.51400391 0.01740234 3.05859375 0.03515625 C4.07050781 0.04417969 5.08242187 0.05320312 6.125 0.0625 C7.29869141 0.07990234 7.29869141 0.07990234 8.49609375 0.09765625 C8.49609375 0.75765625 8.49609375 1.41765625 8.49609375 2.09765625 C7.50609375 2.59265625 7.50609375 2.59265625 6.49609375 3.09765625 C9.34885194 4.0188914 12.20320563 4.93463438 15.05859375 5.84765625 C15.83912109 6.1003125 16.61964844 6.35296875 17.42382812 6.61328125 C23.11078735 8.4258579 28.83874103 10.01850601 34.61050415 11.5388031 C41.74014847 13.41748015 48.83738655 15.40958422 55.93359375 17.41015625 C56.61809601 17.60263947 57.30259827 17.79512268 58.00784302 17.99343872 C68.29238941 20.88582313 78.55934409 23.83363429 88.79663086 26.88989258 C93.64785017 28.32535436 98.48272791 29.56833178 103.42944336 30.62573242 C106.53235603 31.33428885 109.5324093 32.30323815 112.55859375 33.28515625 C129.0366897 38.53429998 145.59631954 43.40083064 162.49609375 47.09765625 C162.33753906 48.17273438 162.17898437 49.2478125 162.015625 50.35546875 C160.23484748 62.56819808 158.59842521 74.79801745 156.99609375 87.03515625 C156.77589645 88.71541571 156.55568164 90.39567288 156.33544922 92.07592773 C156.17396393 93.30804237 156.17396393 93.30804237 156.00921631 94.56504822 C155.90304993 95.37502762 155.79688354 96.18500702 155.6875 97.01953125 C155.58278381 97.81851334 155.47806763 98.61749542 155.37017822 99.44068909 C153.71580025 112.05634834 152.0220287 124.66191618 150.11865234 137.24267578 C147.91459663 151.82751155 145.99883949 166.43935839 144.15869141 181.07397461 C144.05551102 181.89225739 143.95233063 182.71054016 143.84602356 183.55361938 C143.65267566 185.08933723 143.46044877 186.6251968 143.26957703 188.16122437 C142.76716273 192.15786908 142.18839947 196.12944859 141.49609375 200.09765625 C137.7366804 199.46860632 134.51833292 198.38639558 131.0234375 196.875 C129.44091187 196.19655029 129.44091187 196.19655029 127.82641602 195.50439453 C126.70678467 195.0195459 125.58715332 194.53469727 124.43359375 194.03515625 C115.42119796 190.17171309 106.39059845 186.38868077 97.25561523 182.82397461 C93.28340604 181.26186007 89.38053323 179.60741523 85.50390625 177.8203125 C77.85954095 174.31002952 70.07850169 171.12970054 62.30859375 167.91015625 C60.71314075 167.24749596 59.1177638 166.58465253 57.52246094 165.92163086 C54.34490502 164.60122715 51.16699233 163.2816883 47.98876953 161.96289062 C41.7383835 159.36876147 35.49222158 156.76451977 29.24609375 154.16015625 C27.32424155 153.35932027 25.40236925 152.55853255 23.48046875 151.7578125 C22.15234375 151.20442708 20.82421875 150.65104167 19.49609375 150.09765625 C19.49609375 149.43765625 19.49609375 148.77765625 19.49609375 148.09765625 C28.35624863 146.62928352 37.22254506 145.52876395 46.15825462 144.6509552 C48.35092921 144.43532212 50.54309021 144.21498864 52.73518372 143.99353027 C58.95718529 143.36582103 65.18004328 142.74678511 71.40307617 142.12939453 C75.23752108 141.74865662 79.07145803 141.36309271 82.90514565 140.97480774 C85.04604164 140.75949018 87.18743794 140.54977696 89.3289032 140.34020996 C96.47622224 139.62481871 103.49025039 138.71166708 110.49609375 137.09765625 C108.3326619 134.90687765 106.16547411 132.72003219 103.99609375 130.53515625 C103.39539063 129.92607422 102.7946875 129.31699219 102.17578125 128.68945312 C99.15210202 125.64969049 96.09711142 122.71731138 92.83203125 119.9375 C86.77176077 114.70797811 81.24342134 108.91280055 75.62109375 103.22265625 C73.37656754 100.95156012 71.12875124 98.6837945 68.87890625 96.41796875 C68.36748077 95.89824493 67.8560553 95.37852112 67.32913208 94.8430481 C64.67309253 92.12750516 64.67309253 92.12750516 61.49609375 90.09765625 C61.49609375 89.43765625 61.49609375 88.77765625 61.49609375 88.09765625 C60.83609375 88.09765625 60.17609375 88.09765625 59.49609375 88.09765625 C59.49609375 87.43765625 59.49609375 86.77765625 59.49609375 86.09765625 C58.83609375 86.09765625 58.17609375 86.09765625 57.49609375 86.09765625 C57.49609375 85.43765625 57.49609375 84.77765625 57.49609375 84.09765625 C56.83609375 84.09765625 56.17609375 84.09765625 55.49609375 84.09765625 C55.49609375 83.43765625 55.49609375 82.77765625 55.49609375 82.09765625 C54.83609375 82.09765625 54.17609375 82.09765625 53.49609375 82.09765625 C53.49609375 81.43765625 53.49609375 80.77765625 53.49609375 80.09765625 C52.68410522 79.77571289 52.68410522 79.77571289 51.85571289 79.44726562 C48.65917717 77.61897287 46.29065164 75.11874454 43.7421875 72.50390625 C43.20006119 71.95657837 42.65793488 71.40925049 42.09938049 70.84533691 C40.37261718 69.10080686 38.6527023 67.34972741 36.93359375 65.59765625 C35.21006102 63.84646812 33.48507692 62.09677426 31.75709534 60.34997559 C30.68360938 59.26427379 29.61280798 58.17590946 28.54502869 57.08459473 C26.28515928 54.79444306 24.18531463 52.89047017 21.49609375 51.09765625 C21.49609375 50.43765625 21.49609375 49.77765625 21.49609375 49.09765625 C20.83609375 49.09765625 20.17609375 49.09765625 19.49609375 49.09765625 C19.50837509 49.70904449 19.52065643 50.32043274 19.53330994 50.9503479 C19.60116892 56.93331373 19.2172318 62.69362409 18.4375 68.62109375 C18.32889145 69.48852203 18.2202829 70.35595032 18.10838318 71.24966431 C17.76424095 73.99143089 17.41194528 76.73206272 17.05859375 79.47265625 C16.59817795 83.08421293 16.14142637 86.69621587 15.6875 90.30859375 C15.57934967 91.16676697 15.47119934 92.02494019 15.35977173 92.90911865 C14.56696728 99.29321966 13.93081955 105.67823276 13.49609375 112.09765625 C12.17609375 112.09765625 10.85609375 112.09765625 9.49609375 112.09765625 C9.31602783 110.48322632 9.31602783 110.48322632 9.13232422 108.83618164 C6.41286419 84.49803759 3.56847392 60.17848388 0.55224609 35.87524414 C-0.14120652 30.28368382 -0.82615208 24.69114029 -1.50390625 19.09765625 C-1.61333557 18.2003479 -1.72276489 17.30303955 -1.83551025 16.37854004 C-2.14394376 13.82987156 -2.4444664 11.28040804 -2.7421875 8.73046875 C-2.83517624 7.96813934 -2.92816498 7.20580994 -3.02397156 6.42037964 C-3.22617177 4.65045317 -3.37141339 2.87416132 -3.50390625 1.09765625 C-2.50390625 0.09765625 -2.50390625 0.09765625 0 0 Z " fill="#194CCA" transform="translate(10.50390625,115.90234375)"/>
<path d="M0 0 C1.19874756 0.34047363 2.39749512 0.68094727 3.63256836 1.03173828 C5.51987671 1.58063721 5.51987671 1.58063721 7.4453125 2.140625 C10.06758276 2.88789207 12.69184886 3.62799857 15.31640625 4.3671875 C16.57437012 4.72200195 17.83233398 5.07681641 19.12841797 5.44238281 C23.23394616 6.57345612 27.35288185 7.58537005 31.5078125 8.515625 C46.02467459 11.81292232 60.39589118 15.8441125 74.5703125 20.390625 C71.45789485 23.75355431 68.02107688 26.23239406 64.1953125 28.703125 C62.8416289 29.59120076 61.48881737 30.48060673 60.13671875 31.37109375 C59.40340332 31.85368652 58.67008789 32.3362793 57.91455078 32.83349609 C53.62400645 35.68343275 49.38205829 38.60463785 45.1328125 41.515625 C36.09208257 47.69992799 26.99697869 53.79870486 17.86547852 59.84814453 C13.33747356 62.85333019 8.828509 65.880847 4.3671875 68.984375 C3.54847168 69.55027344 2.72975586 70.11617188 1.88623047 70.69921875 C-0.4279989 72.33433992 -0.4279989 72.33433992 -2.41357422 74.14453125 C-8.14685391 79.13332489 -12.88771475 79.16781176 -20.3046875 78.890625 C-21.55789795 78.86798584 -22.8111084 78.84534668 -24.10229492 78.82202148 C-27.94686721 78.74648374 -31.78872057 78.62154251 -35.63165283 78.48748779 C-38.70333725 78.38115175 -41.77521106 78.28222382 -44.84716797 78.18408203 C-55.92880464 77.82715048 -67.00938062 77.44588267 -78.08932495 77.03985596 C-92.24276808 76.52200081 -106.39555355 76.09203674 -120.5546875 75.765625 C-121.43524811 75.74525177 -122.31580872 75.72487854 -123.22305298 75.70388794 C-127.95851039 75.59518102 -132.69403916 75.49065673 -137.4296875 75.390625 C-137.50374045 70.58515821 -137.55824247 65.7800221 -137.59448242 60.97412109 C-137.60958661 59.33864559 -137.63007139 57.70321071 -137.65600586 56.06787109 C-137.69231895 53.71962476 -137.70939682 51.37191295 -137.72265625 49.0234375 C-137.74588203 47.92335861 -137.74588203 47.92335861 -137.76957703 46.80105591 C-137.77026367 44.73876953 -137.77026367 44.73876953 -137.4296875 41.390625 C-134.64071021 39.53130681 -133.43921961 39.0483286 -130.29370117 38.46557617 C-125.52833301 37.47609971 -121.1389875 35.93892217 -116.60546875 34.19140625 C-114.92986752 33.56023469 -113.25357508 32.93089562 -111.57666016 32.30322266 C-110.2985849 31.82468842 -110.2985849 31.82468842 -108.99468994 31.33648682 C-101.58759632 28.60507147 -94.09235849 26.11556429 -86.6171875 23.578125 C-84.82271299 22.96683559 -83.02828003 22.35542421 -81.23388672 21.74389648 C-69.31182696 17.68569485 -57.36593093 13.70312785 -45.40966797 9.74707031 C-36.81587623 6.88928305 -28.29851629 3.86188387 -19.82421875 0.66796875 C-12.68938295 -2.01683137 -7.35709899 -2.12924925 0 0 Z " fill="#132168" transform="translate(191.4296875,43.609375)"/>
<path d="M0 0 C4.5407699 0.64868141 8.43748396 1.28278112 12.7734375 2.48828125 C14.36816895 2.92636108 14.36816895 2.92636108 15.99511719 3.37329102 C17.66815918 3.83819946 17.66815918 3.83819946 19.375 4.3125 C26.8086177 6.34927001 34.23190557 8.36111486 41.75 10.0625 C56.32765659 13.38250436 70.76469692 17.43395939 85 22 C81.88758235 25.36292931 78.45076438 27.84176906 74.625 30.3125 C73.2713164 31.20057576 71.91850487 32.08998173 70.56640625 32.98046875 C69.83309082 33.46306152 69.09977539 33.9456543 68.34423828 34.44287109 C64.05369395 37.29280775 59.81174579 40.21401285 55.5625 43.125 C46.52177007 49.30930299 37.42666619 55.40807986 28.29516602 61.45751953 C21.42130454 66.01962363 14.54858953 70.6000061 7.9387207 75.54077148 C3.29195071 79 3.29195071 79 0 79 C0 52.93 0 26.86 0 0 Z " fill="#0A0F2C" transform="translate(181,42)"/>
<path d="M0 0 C16.84941782 3.32127948 33.70337487 6.66210228 50.3996582 10.69116211 C54.10684525 11.57897772 57.80475705 12.360739 61.5625 13 C66.8078982 13.89692305 71.93046895 15.17673716 77.08032227 16.50390625 C82.03987833 17.7803873 86.99136004 18.8869689 92 20 C92 42.77 92 65.54 92 89 C87.16775811 87.79193953 85.05540684 85.35844983 81.75 81.875 C78.40502092 78.39299768 75.06270683 75.00565637 71.3828125 71.875 C65.30375428 66.63619622 59.76152338 60.82951131 54.125 55.125 C51.88047379 52.85390387 49.63265749 50.58613825 47.3828125 48.3203125 C46.87138702 47.80058868 46.35996155 47.28086487 45.83303833 46.74539185 C43.17699878 44.02984891 43.17699878 44.02984891 40 42 C40 41.34 40 40.68 40 40 C39.34 40 38.68 40 38 40 C38 39.34 38 38.68 38 38 C37.34 38 36.68 38 36 38 C36 37.34 36 36.68 36 36 C35.34 36 34.68 36 34 36 C34 35.34 34 34.68 34 34 C33.34 34 32.68 34 32 34 C32 33.34 32 32.68 32 32 C31.45867432 31.78537109 30.91734863 31.57074219 30.35961914 31.34960938 C27.16308342 29.52131662 24.79455789 27.02108829 22.24609375 24.40625 C21.70396744 23.85892212 21.16184113 23.31159424 20.60328674 22.74768066 C18.87652343 21.00315061 17.15660855 19.25207116 15.4375 17.5 C13.71396727 15.74881187 11.98898317 13.99911801 10.26100159 12.25231934 C9.18751563 11.16661754 8.11671423 10.07825321 7.04893494 8.98693848 C4.78906553 6.69678681 2.68922088 4.79281392 0 3 C0 2.01 0 1.02 0 0 Z " fill="#0A0E2B" transform="translate(32,164)"/>
<path d="M0 0 C-0.78309495 7.44872462 -2.26261169 14.72617042 -3.75 22.0625 C-4.02151601 23.41071954 -4.29299996 24.75894554 -4.56445312 26.10717773 C-6.32905223 34.84025864 -8.17520188 43.55376942 -10.09350586 52.25439453 C-11.90044412 60.46827992 -13.6140431 68.70066324 -15.3125 76.9375 C-15.44769043 77.59307892 -15.58288086 78.24865784 -15.72216797 78.92410278 C-16.48304475 82.6157405 -17.24223732 86.30772189 -18 90 C-21.28415804 89.41213392 -22.98708524 88.41155441 -25.390625 86.12109375 C-26.01428955 85.53287842 -26.6379541 84.94466309 -27.28051758 84.33862305 C-27.93044678 83.71125244 -28.58037598 83.08388184 -29.25 82.4375 C-29.91733154 81.80432861 -30.58466309 81.17115723 -31.2722168 80.51879883 C-35.45104074 76.53942685 -39.57279539 72.50631117 -43.58203125 68.35546875 C-44.97697309 66.88869089 -44.97697309 66.88869089 -47 66 C-47 65.34 -47 64.68 -47 64 C-47.66 64 -48.32 64 -49 64 C-49 63.34 -49 62.68 -49 62 C-49.82757813 61.66548828 -49.82757813 61.66548828 -50.671875 61.32421875 C-53.7305676 59.58445903 -55.8073812 57.34235518 -58.25 54.8125 C-62.16886706 50.79880571 -66.16424313 46.97676623 -70.44140625 43.33984375 C-71.67503179 42.27935864 -72.84968251 41.15031749 -74 40 C-74 39.01 -74 38.02 -74 37 C-73.4330542 36.71914551 -72.8661084 36.43829102 -72.28198242 36.14892578 C-61.52574823 30.81355657 -50.81263954 25.41822243 -40.21020508 19.78295898 C-33.08446106 16.01041833 -25.87738884 12.40807689 -18.64648438 8.84179688 C-13.60341639 6.34467088 -8.666471 3.73790685 -3.79931641 0.91137695 C-2 0 -2 0 0 0 Z " fill="#131F67" transform="translate(293,146)"/>
<path d="M0 0 C0.06058594 1.02480469 0.12117188 2.04960937 0.18359375 3.10546875 C0.26805026 4.46615695 0.35269567 5.82683343 0.4375 7.1875 C0.47681641 7.86103516 0.51613281 8.53457031 0.55664062 9.22851562 C0.73509869 12.04266205 0.95147086 14.76877292 1.53125 17.53125 C2.15526918 20.81775102 2.09373044 23.97084286 2.0625 27.3125 C2.05347656 28.56675781 2.04445313 29.82101563 2.03515625 31.11328125 C2.02355469 32.06589844 2.01195312 33.01851562 2 34 C-4.56307008 36.28547266 -11.12693292 38.56865859 -17.69140625 40.85009766 C-19.78783885 41.57871318 -21.88420167 42.30752951 -23.98046875 43.03662109 C-38.53233974 48.09590013 -53.10591575 53.08967724 -67.6875 58.0625 C-84.63610022 63.84269383 -84.63610022 63.84269383 -101.5625 69.6875 C-102.43414795 69.98986572 -103.3057959 70.29223145 -104.20385742 70.60375977 C-107.96227147 71.91407768 -111.69270829 73.26406804 -115.40234375 74.70703125 C-119 76 -119 76 -122 76 C-122 75.34 -122 74.68 -122 74 C-121.14019531 73.5153125 -120.28039062 73.030625 -119.39453125 72.53125 C-111.82635027 68.24719041 -104.36197838 63.83064411 -96.97900391 59.23242188 C-92.86451251 56.6701282 -88.74477958 54.11627935 -84.625 51.5625 C-83.71073242 50.9955542 -82.79646484 50.4286084 -81.85449219 49.84448242 C-76.82285078 46.72959259 -71.77452295 43.648467 -66.6875 40.625 C-60.1655586 36.74669428 -53.7389299 32.72169036 -47.3125 28.6875 C-38.83332015 23.36469618 -30.3020301 18.14480783 -21.70263672 13.01879883 C-16.50486966 9.91649184 -5.64767847 0 0 0 Z " fill="#00EEFE" transform="translate(179,8)"/>
<path d="M0 0 C3.63 0 7.26 0 11 0 C11 0.66 11 1.32 11 2 C3.25 3.125 3.25 3.125 1 2 C1.144375 2.79921875 1.28875 3.5984375 1.4375 4.421875 C2.72343397 12.03031766 3.25006637 19.28962013 3 27 C2.67 27 2.34 27 2 27 C1.46688195 23.25163939 0.95064909 19.50114226 0.4375 15.75 C0.28603516 14.68652344 0.13457031 13.62304688 -0.02148438 12.52734375 C-0.16005859 11.50253906 -0.29863281 10.47773437 -0.44140625 9.421875 C-0.57232666 8.47924805 -0.70324707 7.53662109 -0.83813477 6.56542969 C-1 4 -1 4 0 0 Z " fill="#1752D9" transform="translate(8,116)"/>
<path d="M0 0 C0.66 0 1.32 0 2 0 C1.67 5.28 1.34 10.56 1 16 C-0.32 16 -1.64 16 -3 16 C-3 13.03 -3 10.06 -3 7 C-2.01 8.485 -2.01 8.485 -1 10 C-0.67 6.7 -0.34 3.4 0 0 Z " fill="#1441AB" transform="translate(23,212)"/>
<path d="M0 0 C0 1.66666667 0 3.33333333 0 5 C-2.97 5.66 -5.94 6.32 -9 7 C-9 6.34 -9 5.68 -9 5 C-6.03 3.35 -3.06 1.7 0 0 Z " fill="#02C1DA" transform="translate(66,77)"/>
<path d="M0 0 C1.51400391 0.01740234 1.51400391 0.01740234 3.05859375 0.03515625 C4.07050781 0.04417969 5.08242187 0.05320312 6.125 0.0625 C7.29869141 0.07990234 7.29869141 0.07990234 8.49609375 0.09765625 C8.49609375 0.75765625 8.49609375 1.41765625 8.49609375 2.09765625 C-0.07533482 3.52622768 -0.07533482 3.52622768 -3.50390625 1.09765625 C-2.50390625 0.09765625 -2.50390625 0.09765625 0 0 Z " fill="#068AD9" transform="translate(10.50390625,115.90234375)"/>
</svg>
